<svg width="16" height="16" viewBox="0 0 16 16" xmlns="http://www.w3.org/2000/svg">
  <path fill="#C5C5C5" d="M14 2h-1V1h-2v1H5V1H3v1H2c-.55 0-1 .45-1 1v11c0 .55.45 1 1 1h12c.55 0 1-.45 1-1V3c0-.55-.45-1-1-1zm-1 11H3V6h10v7z"/>
  <rect fill="#C5C5C5" x="4" y="8" width="1" height="4"/>
  <rect fill="#C5C5C5" x="6" y="9" width="1" height="3"/>
  <rect fill="#C5C5C5" x="8" y="7" width="1" height="5"/>
  <rect fill="#C5C5C5" x="10" y="10" width="1" height="2"/>
  <rect fill="#C5C5C5" x="12" y="8" width="1" height="4"/>
</svg>